<mxfile host="app.diagrams.net" modified="2023-11-24T07:15:50.369Z" agent="Mozilla/5.0 (Windows NT 10.0; Win64; x64) AppleWebKit/537.36 (KHTML, like Gecko) Chrome/119.0.0.0 Safari/537.36" etag="PQZ15C-XvEUErppVq--S" version="22.1.3" type="device">
  <diagram id="R2lEEEUBdFMjLlhIrx00" name="Page-1">
    <mxGraphModel dx="1900" dy="1630" grid="1" gridSize="10" guides="1" tooltips="1" connect="1" arrows="1" fold="1" page="1" pageScale="1" pageWidth="850" pageHeight="1100" math="0" shadow="0" extFonts="Permanent Marker^https://fonts.googleapis.com/css?family=Permanent+Marker">
      <root>
        <mxCell id="0" />
        <mxCell id="1" parent="0" />
        <mxCell id="eXM2TUHNtdkoOtEyF7D8-102" style="edgeStyle=orthogonalEdgeStyle;rounded=0;orthogonalLoop=1;jettySize=auto;html=1;exitX=0.5;exitY=1;exitDx=0;exitDy=0;entryX=0.5;entryY=0;entryDx=0;entryDy=0;" parent="1" source="C-vyLk0tnHw3VtMMgP7b-23" target="eXM2TUHNtdkoOtEyF7D8-71" edge="1">
          <mxGeometry relative="1" as="geometry" />
        </mxCell>
        <mxCell id="eXM2TUHNtdkoOtEyF7D8-124" style="edgeStyle=orthogonalEdgeStyle;rounded=0;orthogonalLoop=1;jettySize=auto;html=1;exitX=0.5;exitY=0;exitDx=0;exitDy=0;entryX=0.5;entryY=1;entryDx=0;entryDy=0;" parent="1" source="C-vyLk0tnHw3VtMMgP7b-23" target="eXM2TUHNtdkoOtEyF7D8-111" edge="1">
          <mxGeometry relative="1" as="geometry" />
        </mxCell>
        <mxCell id="C-vyLk0tnHw3VtMMgP7b-23" value="FactVideo" style="shape=table;startSize=30;container=1;collapsible=1;childLayout=tableLayout;fixedRows=1;rowLines=0;fontStyle=1;align=center;resizeLast=1;fillColor=#0050ef;fontColor=#ffffff;strokeColor=#001DBC;" parent="1" vertex="1">
          <mxGeometry x="180" y="100" width="250" height="270" as="geometry" />
        </mxCell>
        <mxCell id="C-vyLk0tnHw3VtMMgP7b-24" value="" style="shape=partialRectangle;collapsible=0;dropTarget=0;pointerEvents=0;fillColor=none;points=[[0,0.5],[1,0.5]];portConstraint=eastwest;top=0;left=0;right=0;bottom=1;" parent="C-vyLk0tnHw3VtMMgP7b-23" vertex="1">
          <mxGeometry y="30" width="250" height="30" as="geometry" />
        </mxCell>
        <mxCell id="C-vyLk0tnHw3VtMMgP7b-25" value="PK" style="shape=partialRectangle;overflow=hidden;connectable=0;fillColor=#d0cee2;top=0;left=0;bottom=0;right=0;fontStyle=1;strokeColor=#56517e;" parent="C-vyLk0tnHw3VtMMgP7b-24" vertex="1">
          <mxGeometry width="30" height="30" as="geometry">
            <mxRectangle width="30" height="30" as="alternateBounds" />
          </mxGeometry>
        </mxCell>
        <mxCell id="C-vyLk0tnHw3VtMMgP7b-26" value="VideoID" style="shape=partialRectangle;overflow=hidden;connectable=0;fillColor=#d0cee2;top=0;left=0;bottom=0;right=0;align=left;spacingLeft=6;fontStyle=5;strokeColor=#56517e;" parent="C-vyLk0tnHw3VtMMgP7b-24" vertex="1">
          <mxGeometry x="30" width="220" height="30" as="geometry">
            <mxRectangle width="220" height="30" as="alternateBounds" />
          </mxGeometry>
        </mxCell>
        <mxCell id="C-vyLk0tnHw3VtMMgP7b-27" value="" style="shape=partialRectangle;collapsible=0;dropTarget=0;pointerEvents=0;fillColor=none;points=[[0,0.5],[1,0.5]];portConstraint=eastwest;top=0;left=0;right=0;bottom=0;" parent="C-vyLk0tnHw3VtMMgP7b-23" vertex="1">
          <mxGeometry y="60" width="250" height="30" as="geometry" />
        </mxCell>
        <mxCell id="C-vyLk0tnHw3VtMMgP7b-28" value="FK" style="shape=partialRectangle;overflow=hidden;connectable=0;fillColor=#d0cee2;top=0;left=0;bottom=0;right=0;strokeColor=#56517e;" parent="C-vyLk0tnHw3VtMMgP7b-27" vertex="1">
          <mxGeometry width="30" height="30" as="geometry">
            <mxRectangle width="30" height="30" as="alternateBounds" />
          </mxGeometry>
        </mxCell>
        <mxCell id="C-vyLk0tnHw3VtMMgP7b-29" value="DateID" style="shape=partialRectangle;overflow=hidden;connectable=0;fillColor=#d0cee2;top=0;left=0;bottom=0;right=0;align=left;spacingLeft=6;strokeColor=#56517e;" parent="C-vyLk0tnHw3VtMMgP7b-27" vertex="1">
          <mxGeometry x="30" width="220" height="30" as="geometry">
            <mxRectangle width="220" height="30" as="alternateBounds" />
          </mxGeometry>
        </mxCell>
        <mxCell id="eXM2TUHNtdkoOtEyF7D8-5" style="shape=partialRectangle;collapsible=0;dropTarget=0;pointerEvents=0;fillColor=none;points=[[0,0.5],[1,0.5]];portConstraint=eastwest;top=0;left=0;right=0;bottom=0;" parent="C-vyLk0tnHw3VtMMgP7b-23" vertex="1">
          <mxGeometry y="90" width="250" height="30" as="geometry" />
        </mxCell>
        <mxCell id="eXM2TUHNtdkoOtEyF7D8-6" value="FK" style="shape=partialRectangle;overflow=hidden;connectable=0;fillColor=#d0cee2;top=0;left=0;bottom=0;right=0;strokeColor=#56517e;" parent="eXM2TUHNtdkoOtEyF7D8-5" vertex="1">
          <mxGeometry width="30" height="30" as="geometry">
            <mxRectangle width="30" height="30" as="alternateBounds" />
          </mxGeometry>
        </mxCell>
        <mxCell id="eXM2TUHNtdkoOtEyF7D8-7" value="PlaylistID" style="shape=partialRectangle;overflow=hidden;connectable=0;fillColor=#d0cee2;top=0;left=0;bottom=0;right=0;align=left;spacingLeft=6;strokeColor=#56517e;" parent="eXM2TUHNtdkoOtEyF7D8-5" vertex="1">
          <mxGeometry x="30" width="220" height="30" as="geometry">
            <mxRectangle width="220" height="30" as="alternateBounds" />
          </mxGeometry>
        </mxCell>
        <mxCell id="eXM2TUHNtdkoOtEyF7D8-9" style="shape=partialRectangle;collapsible=0;dropTarget=0;pointerEvents=0;fillColor=none;points=[[0,0.5],[1,0.5]];portConstraint=eastwest;top=0;left=0;right=0;bottom=0;" parent="C-vyLk0tnHw3VtMMgP7b-23" vertex="1">
          <mxGeometry y="120" width="250" height="30" as="geometry" />
        </mxCell>
        <mxCell id="eXM2TUHNtdkoOtEyF7D8-10" value="FK" style="shape=partialRectangle;overflow=hidden;connectable=0;fillColor=#d0cee2;top=0;left=0;bottom=0;right=0;strokeColor=#56517e;" parent="eXM2TUHNtdkoOtEyF7D8-9" vertex="1">
          <mxGeometry width="30" height="30" as="geometry">
            <mxRectangle width="30" height="30" as="alternateBounds" />
          </mxGeometry>
        </mxCell>
        <mxCell id="eXM2TUHNtdkoOtEyF7D8-11" value="VisibilityID" style="shape=partialRectangle;overflow=hidden;connectable=0;fillColor=#d0cee2;top=0;left=0;bottom=0;right=0;align=left;spacingLeft=6;strokeColor=#56517e;" parent="eXM2TUHNtdkoOtEyF7D8-9" vertex="1">
          <mxGeometry x="30" width="220" height="30" as="geometry">
            <mxRectangle width="220" height="30" as="alternateBounds" />
          </mxGeometry>
        </mxCell>
        <mxCell id="eXM2TUHNtdkoOtEyF7D8-12" style="shape=partialRectangle;collapsible=0;dropTarget=0;pointerEvents=0;fillColor=none;points=[[0,0.5],[1,0.5]];portConstraint=eastwest;top=0;left=0;right=0;bottom=0;" parent="C-vyLk0tnHw3VtMMgP7b-23" vertex="1">
          <mxGeometry y="150" width="250" height="30" as="geometry" />
        </mxCell>
        <mxCell id="eXM2TUHNtdkoOtEyF7D8-13" value="FK" style="shape=partialRectangle;overflow=hidden;connectable=0;fillColor=#d0cee2;top=0;left=0;bottom=0;right=0;strokeColor=#56517e;" parent="eXM2TUHNtdkoOtEyF7D8-12" vertex="1">
          <mxGeometry width="30" height="30" as="geometry">
            <mxRectangle width="30" height="30" as="alternateBounds" />
          </mxGeometry>
        </mxCell>
        <mxCell id="eXM2TUHNtdkoOtEyF7D8-14" value="TypeID" style="shape=partialRectangle;overflow=hidden;connectable=0;fillColor=#d0cee2;top=0;left=0;bottom=0;right=0;align=left;spacingLeft=6;strokeColor=#56517e;" parent="eXM2TUHNtdkoOtEyF7D8-12" vertex="1">
          <mxGeometry x="30" width="220" height="30" as="geometry">
            <mxRectangle width="220" height="30" as="alternateBounds" />
          </mxGeometry>
        </mxCell>
        <mxCell id="eXM2TUHNtdkoOtEyF7D8-15" style="shape=partialRectangle;collapsible=0;dropTarget=0;pointerEvents=0;fillColor=none;points=[[0,0.5],[1,0.5]];portConstraint=eastwest;top=0;left=0;right=0;bottom=0;" parent="C-vyLk0tnHw3VtMMgP7b-23" vertex="1">
          <mxGeometry y="180" width="250" height="30" as="geometry" />
        </mxCell>
        <mxCell id="eXM2TUHNtdkoOtEyF7D8-16" style="shape=partialRectangle;overflow=hidden;connectable=0;fillColor=#d0cee2;top=0;left=0;bottom=0;right=0;strokeColor=#56517e;" parent="eXM2TUHNtdkoOtEyF7D8-15" vertex="1">
          <mxGeometry width="30" height="30" as="geometry">
            <mxRectangle width="30" height="30" as="alternateBounds" />
          </mxGeometry>
        </mxCell>
        <mxCell id="eXM2TUHNtdkoOtEyF7D8-17" value="LikeCount" style="shape=partialRectangle;overflow=hidden;connectable=0;fillColor=#d0cee2;top=0;left=0;bottom=0;right=0;align=left;spacingLeft=6;strokeColor=#56517e;" parent="eXM2TUHNtdkoOtEyF7D8-15" vertex="1">
          <mxGeometry x="30" width="220" height="30" as="geometry">
            <mxRectangle width="220" height="30" as="alternateBounds" />
          </mxGeometry>
        </mxCell>
        <mxCell id="eXM2TUHNtdkoOtEyF7D8-18" style="shape=partialRectangle;collapsible=0;dropTarget=0;pointerEvents=0;fillColor=none;points=[[0,0.5],[1,0.5]];portConstraint=eastwest;top=0;left=0;right=0;bottom=0;" parent="C-vyLk0tnHw3VtMMgP7b-23" vertex="1">
          <mxGeometry y="210" width="250" height="30" as="geometry" />
        </mxCell>
        <mxCell id="eXM2TUHNtdkoOtEyF7D8-19" style="shape=partialRectangle;overflow=hidden;connectable=0;fillColor=#d0cee2;top=0;left=0;bottom=0;right=0;strokeColor=#56517e;" parent="eXM2TUHNtdkoOtEyF7D8-18" vertex="1">
          <mxGeometry width="30" height="30" as="geometry">
            <mxRectangle width="30" height="30" as="alternateBounds" />
          </mxGeometry>
        </mxCell>
        <mxCell id="eXM2TUHNtdkoOtEyF7D8-20" value="CommentCount" style="shape=partialRectangle;overflow=hidden;connectable=0;fillColor=#d0cee2;top=0;left=0;bottom=0;right=0;align=left;spacingLeft=6;strokeColor=#56517e;" parent="eXM2TUHNtdkoOtEyF7D8-18" vertex="1">
          <mxGeometry x="30" width="220" height="30" as="geometry">
            <mxRectangle width="220" height="30" as="alternateBounds" />
          </mxGeometry>
        </mxCell>
        <mxCell id="eXM2TUHNtdkoOtEyF7D8-21" style="shape=partialRectangle;collapsible=0;dropTarget=0;pointerEvents=0;fillColor=none;points=[[0,0.5],[1,0.5]];portConstraint=eastwest;top=0;left=0;right=0;bottom=0;" parent="C-vyLk0tnHw3VtMMgP7b-23" vertex="1">
          <mxGeometry y="240" width="250" height="30" as="geometry" />
        </mxCell>
        <mxCell id="eXM2TUHNtdkoOtEyF7D8-22" style="shape=partialRectangle;overflow=hidden;connectable=0;fillColor=#d0cee2;top=0;left=0;bottom=0;right=0;strokeColor=#56517e;" parent="eXM2TUHNtdkoOtEyF7D8-21" vertex="1">
          <mxGeometry width="30" height="30" as="geometry">
            <mxRectangle width="30" height="30" as="alternateBounds" />
          </mxGeometry>
        </mxCell>
        <mxCell id="eXM2TUHNtdkoOtEyF7D8-23" value="ViewCount" style="shape=partialRectangle;overflow=hidden;connectable=0;fillColor=#d0cee2;top=0;left=0;bottom=0;right=0;align=left;spacingLeft=6;strokeColor=#56517e;" parent="eXM2TUHNtdkoOtEyF7D8-21" vertex="1">
          <mxGeometry x="30" width="220" height="30" as="geometry">
            <mxRectangle width="220" height="30" as="alternateBounds" />
          </mxGeometry>
        </mxCell>
        <mxCell id="eXM2TUHNtdkoOtEyF7D8-24" value="DimensionDate" style="shape=table;startSize=30;container=1;collapsible=1;childLayout=tableLayout;fixedRows=1;rowLines=0;fontStyle=1;align=center;resizeLast=1;fillColor=#0050ef;fontColor=#ffffff;strokeColor=#001DBC;" parent="1" vertex="1">
          <mxGeometry x="580" y="60" width="250" height="300" as="geometry" />
        </mxCell>
        <mxCell id="eXM2TUHNtdkoOtEyF7D8-25" value="" style="shape=partialRectangle;collapsible=0;dropTarget=0;pointerEvents=0;fillColor=none;points=[[0,0.5],[1,0.5]];portConstraint=eastwest;top=0;left=0;right=0;bottom=1;" parent="eXM2TUHNtdkoOtEyF7D8-24" vertex="1">
          <mxGeometry y="30" width="250" height="30" as="geometry" />
        </mxCell>
        <mxCell id="eXM2TUHNtdkoOtEyF7D8-26" value="PK" style="shape=partialRectangle;overflow=hidden;connectable=0;fillColor=#d0cee2;top=0;left=0;bottom=0;right=0;fontStyle=1;strokeColor=#56517e;" parent="eXM2TUHNtdkoOtEyF7D8-25" vertex="1">
          <mxGeometry width="30" height="30" as="geometry">
            <mxRectangle width="30" height="30" as="alternateBounds" />
          </mxGeometry>
        </mxCell>
        <mxCell id="eXM2TUHNtdkoOtEyF7D8-27" value="DateID" style="shape=partialRectangle;overflow=hidden;connectable=0;fillColor=#d0cee2;top=0;left=0;bottom=0;right=0;align=left;spacingLeft=6;fontStyle=5;strokeColor=#56517e;" parent="eXM2TUHNtdkoOtEyF7D8-25" vertex="1">
          <mxGeometry x="30" width="220" height="30" as="geometry">
            <mxRectangle width="220" height="30" as="alternateBounds" />
          </mxGeometry>
        </mxCell>
        <mxCell id="eXM2TUHNtdkoOtEyF7D8-28" value="" style="shape=partialRectangle;collapsible=0;dropTarget=0;pointerEvents=0;fillColor=none;points=[[0,0.5],[1,0.5]];portConstraint=eastwest;top=0;left=0;right=0;bottom=0;" parent="eXM2TUHNtdkoOtEyF7D8-24" vertex="1">
          <mxGeometry y="60" width="250" height="30" as="geometry" />
        </mxCell>
        <mxCell id="eXM2TUHNtdkoOtEyF7D8-29" value="" style="shape=partialRectangle;overflow=hidden;connectable=0;fillColor=#d0cee2;top=0;left=0;bottom=0;right=0;strokeColor=#56517e;" parent="eXM2TUHNtdkoOtEyF7D8-28" vertex="1">
          <mxGeometry width="30" height="30" as="geometry">
            <mxRectangle width="30" height="30" as="alternateBounds" />
          </mxGeometry>
        </mxCell>
        <mxCell id="eXM2TUHNtdkoOtEyF7D8-30" value="Year" style="shape=partialRectangle;overflow=hidden;connectable=0;fillColor=#d0cee2;top=0;left=0;bottom=0;right=0;align=left;spacingLeft=6;strokeColor=#56517e;" parent="eXM2TUHNtdkoOtEyF7D8-28" vertex="1">
          <mxGeometry x="30" width="220" height="30" as="geometry">
            <mxRectangle width="220" height="30" as="alternateBounds" />
          </mxGeometry>
        </mxCell>
        <mxCell id="eXM2TUHNtdkoOtEyF7D8-49" style="shape=partialRectangle;collapsible=0;dropTarget=0;pointerEvents=0;fillColor=none;points=[[0,0.5],[1,0.5]];portConstraint=eastwest;top=0;left=0;right=0;bottom=0;" parent="eXM2TUHNtdkoOtEyF7D8-24" vertex="1">
          <mxGeometry y="90" width="250" height="30" as="geometry" />
        </mxCell>
        <mxCell id="eXM2TUHNtdkoOtEyF7D8-50" style="shape=partialRectangle;overflow=hidden;connectable=0;fillColor=#d0cee2;top=0;left=0;bottom=0;right=0;strokeColor=#56517e;" parent="eXM2TUHNtdkoOtEyF7D8-49" vertex="1">
          <mxGeometry width="30" height="30" as="geometry">
            <mxRectangle width="30" height="30" as="alternateBounds" />
          </mxGeometry>
        </mxCell>
        <mxCell id="eXM2TUHNtdkoOtEyF7D8-51" value="Quarter" style="shape=partialRectangle;overflow=hidden;connectable=0;fillColor=#d0cee2;top=0;left=0;bottom=0;right=0;align=left;spacingLeft=6;strokeColor=#56517e;" parent="eXM2TUHNtdkoOtEyF7D8-49" vertex="1">
          <mxGeometry x="30" width="220" height="30" as="geometry">
            <mxRectangle width="220" height="30" as="alternateBounds" />
          </mxGeometry>
        </mxCell>
        <mxCell id="eXM2TUHNtdkoOtEyF7D8-52" style="shape=partialRectangle;collapsible=0;dropTarget=0;pointerEvents=0;fillColor=none;points=[[0,0.5],[1,0.5]];portConstraint=eastwest;top=0;left=0;right=0;bottom=0;" parent="eXM2TUHNtdkoOtEyF7D8-24" vertex="1">
          <mxGeometry y="120" width="250" height="30" as="geometry" />
        </mxCell>
        <mxCell id="eXM2TUHNtdkoOtEyF7D8-53" style="shape=partialRectangle;overflow=hidden;connectable=0;fillColor=#d0cee2;top=0;left=0;bottom=0;right=0;strokeColor=#56517e;" parent="eXM2TUHNtdkoOtEyF7D8-52" vertex="1">
          <mxGeometry width="30" height="30" as="geometry">
            <mxRectangle width="30" height="30" as="alternateBounds" />
          </mxGeometry>
        </mxCell>
        <mxCell id="eXM2TUHNtdkoOtEyF7D8-54" value="Month" style="shape=partialRectangle;overflow=hidden;connectable=0;fillColor=#d0cee2;top=0;left=0;bottom=0;right=0;align=left;spacingLeft=6;strokeColor=#56517e;" parent="eXM2TUHNtdkoOtEyF7D8-52" vertex="1">
          <mxGeometry x="30" width="220" height="30" as="geometry">
            <mxRectangle width="220" height="30" as="alternateBounds" />
          </mxGeometry>
        </mxCell>
        <mxCell id="eXM2TUHNtdkoOtEyF7D8-55" style="shape=partialRectangle;collapsible=0;dropTarget=0;pointerEvents=0;fillColor=none;points=[[0,0.5],[1,0.5]];portConstraint=eastwest;top=0;left=0;right=0;bottom=0;" parent="eXM2TUHNtdkoOtEyF7D8-24" vertex="1">
          <mxGeometry y="150" width="250" height="30" as="geometry" />
        </mxCell>
        <mxCell id="eXM2TUHNtdkoOtEyF7D8-56" style="shape=partialRectangle;overflow=hidden;connectable=0;fillColor=#d0cee2;top=0;left=0;bottom=0;right=0;strokeColor=#56517e;" parent="eXM2TUHNtdkoOtEyF7D8-55" vertex="1">
          <mxGeometry width="30" height="30" as="geometry">
            <mxRectangle width="30" height="30" as="alternateBounds" />
          </mxGeometry>
        </mxCell>
        <mxCell id="eXM2TUHNtdkoOtEyF7D8-57" value="DayOfMonth" style="shape=partialRectangle;overflow=hidden;connectable=0;fillColor=#d0cee2;top=0;left=0;bottom=0;right=0;align=left;spacingLeft=6;strokeColor=#56517e;" parent="eXM2TUHNtdkoOtEyF7D8-55" vertex="1">
          <mxGeometry x="30" width="220" height="30" as="geometry">
            <mxRectangle width="220" height="30" as="alternateBounds" />
          </mxGeometry>
        </mxCell>
        <mxCell id="eXM2TUHNtdkoOtEyF7D8-64" style="shape=partialRectangle;collapsible=0;dropTarget=0;pointerEvents=0;fillColor=none;points=[[0,0.5],[1,0.5]];portConstraint=eastwest;top=0;left=0;right=0;bottom=0;" parent="eXM2TUHNtdkoOtEyF7D8-24" vertex="1">
          <mxGeometry y="180" width="250" height="30" as="geometry" />
        </mxCell>
        <mxCell id="eXM2TUHNtdkoOtEyF7D8-65" style="shape=partialRectangle;overflow=hidden;connectable=0;fillColor=#d0cee2;top=0;left=0;bottom=0;right=0;strokeColor=#56517e;" parent="eXM2TUHNtdkoOtEyF7D8-64" vertex="1">
          <mxGeometry width="30" height="30" as="geometry">
            <mxRectangle width="30" height="30" as="alternateBounds" />
          </mxGeometry>
        </mxCell>
        <mxCell id="eXM2TUHNtdkoOtEyF7D8-66" value="DayOfWeek" style="shape=partialRectangle;overflow=hidden;connectable=0;fillColor=#d0cee2;top=0;left=0;bottom=0;right=0;align=left;spacingLeft=6;strokeColor=#56517e;" parent="eXM2TUHNtdkoOtEyF7D8-64" vertex="1">
          <mxGeometry x="30" width="220" height="30" as="geometry">
            <mxRectangle width="220" height="30" as="alternateBounds" />
          </mxGeometry>
        </mxCell>
        <mxCell id="eXM2TUHNtdkoOtEyF7D8-58" style="shape=partialRectangle;collapsible=0;dropTarget=0;pointerEvents=0;fillColor=none;points=[[0,0.5],[1,0.5]];portConstraint=eastwest;top=0;left=0;right=0;bottom=0;" parent="eXM2TUHNtdkoOtEyF7D8-24" vertex="1">
          <mxGeometry y="210" width="250" height="30" as="geometry" />
        </mxCell>
        <mxCell id="eXM2TUHNtdkoOtEyF7D8-59" style="shape=partialRectangle;overflow=hidden;connectable=0;fillColor=#d0cee2;top=0;left=0;bottom=0;right=0;strokeColor=#56517e;" parent="eXM2TUHNtdkoOtEyF7D8-58" vertex="1">
          <mxGeometry width="30" height="30" as="geometry">
            <mxRectangle width="30" height="30" as="alternateBounds" />
          </mxGeometry>
        </mxCell>
        <mxCell id="eXM2TUHNtdkoOtEyF7D8-60" value="Hour" style="shape=partialRectangle;overflow=hidden;connectable=0;fillColor=#d0cee2;top=0;left=0;bottom=0;right=0;align=left;spacingLeft=6;strokeColor=#56517e;" parent="eXM2TUHNtdkoOtEyF7D8-58" vertex="1">
          <mxGeometry x="30" width="220" height="30" as="geometry">
            <mxRectangle width="220" height="30" as="alternateBounds" />
          </mxGeometry>
        </mxCell>
        <mxCell id="eXM2TUHNtdkoOtEyF7D8-61" style="shape=partialRectangle;collapsible=0;dropTarget=0;pointerEvents=0;fillColor=none;points=[[0,0.5],[1,0.5]];portConstraint=eastwest;top=0;left=0;right=0;bottom=0;" parent="eXM2TUHNtdkoOtEyF7D8-24" vertex="1">
          <mxGeometry y="240" width="250" height="30" as="geometry" />
        </mxCell>
        <mxCell id="eXM2TUHNtdkoOtEyF7D8-62" style="shape=partialRectangle;overflow=hidden;connectable=0;fillColor=#d0cee2;top=0;left=0;bottom=0;right=0;strokeColor=#56517e;" parent="eXM2TUHNtdkoOtEyF7D8-61" vertex="1">
          <mxGeometry width="30" height="30" as="geometry">
            <mxRectangle width="30" height="30" as="alternateBounds" />
          </mxGeometry>
        </mxCell>
        <mxCell id="eXM2TUHNtdkoOtEyF7D8-63" value="Minute" style="shape=partialRectangle;overflow=hidden;connectable=0;fillColor=#d0cee2;top=0;left=0;bottom=0;right=0;align=left;spacingLeft=6;strokeColor=#56517e;" parent="eXM2TUHNtdkoOtEyF7D8-61" vertex="1">
          <mxGeometry x="30" width="220" height="30" as="geometry">
            <mxRectangle width="220" height="30" as="alternateBounds" />
          </mxGeometry>
        </mxCell>
        <mxCell id="eXM2TUHNtdkoOtEyF7D8-67" style="shape=partialRectangle;collapsible=0;dropTarget=0;pointerEvents=0;fillColor=none;points=[[0,0.5],[1,0.5]];portConstraint=eastwest;top=0;left=0;right=0;bottom=0;" parent="eXM2TUHNtdkoOtEyF7D8-24" vertex="1">
          <mxGeometry y="270" width="250" height="30" as="geometry" />
        </mxCell>
        <mxCell id="eXM2TUHNtdkoOtEyF7D8-68" style="shape=partialRectangle;overflow=hidden;connectable=0;fillColor=#d0cee2;top=0;left=0;bottom=0;right=0;strokeColor=#56517e;" parent="eXM2TUHNtdkoOtEyF7D8-67" vertex="1">
          <mxGeometry width="30" height="30" as="geometry">
            <mxRectangle width="30" height="30" as="alternateBounds" />
          </mxGeometry>
        </mxCell>
        <mxCell id="eXM2TUHNtdkoOtEyF7D8-69" value="Second" style="shape=partialRectangle;overflow=hidden;connectable=0;fillColor=#d0cee2;top=0;left=0;bottom=0;right=0;align=left;spacingLeft=6;strokeColor=#56517e;" parent="eXM2TUHNtdkoOtEyF7D8-67" vertex="1">
          <mxGeometry x="30" width="220" height="30" as="geometry">
            <mxRectangle width="220" height="30" as="alternateBounds" />
          </mxGeometry>
        </mxCell>
        <mxCell id="eXM2TUHNtdkoOtEyF7D8-70" style="edgeStyle=orthogonalEdgeStyle;rounded=0;orthogonalLoop=1;jettySize=auto;html=1;exitX=1;exitY=0.5;exitDx=0;exitDy=0;entryX=0;entryY=0.5;entryDx=0;entryDy=0;" parent="1" source="C-vyLk0tnHw3VtMMgP7b-27" target="eXM2TUHNtdkoOtEyF7D8-25" edge="1">
          <mxGeometry relative="1" as="geometry" />
        </mxCell>
        <mxCell id="eXM2TUHNtdkoOtEyF7D8-71" value="DimensionVisibility" style="shape=table;startSize=30;container=1;collapsible=1;childLayout=tableLayout;fixedRows=1;rowLines=0;fontStyle=1;align=center;resizeLast=1;fillColor=#0050ef;fontColor=#ffffff;strokeColor=#001DBC;" parent="1" vertex="1">
          <mxGeometry x="180" y="440" width="250" height="90" as="geometry" />
        </mxCell>
        <mxCell id="eXM2TUHNtdkoOtEyF7D8-72" value="" style="shape=partialRectangle;collapsible=0;dropTarget=0;pointerEvents=0;fillColor=none;points=[[0,0.5],[1,0.5]];portConstraint=eastwest;top=0;left=0;right=0;bottom=1;" parent="eXM2TUHNtdkoOtEyF7D8-71" vertex="1">
          <mxGeometry y="30" width="250" height="30" as="geometry" />
        </mxCell>
        <mxCell id="eXM2TUHNtdkoOtEyF7D8-73" value="PK" style="shape=partialRectangle;overflow=hidden;connectable=0;fillColor=#d0cee2;top=0;left=0;bottom=0;right=0;fontStyle=1;strokeColor=#56517e;" parent="eXM2TUHNtdkoOtEyF7D8-72" vertex="1">
          <mxGeometry width="30" height="30" as="geometry">
            <mxRectangle width="30" height="30" as="alternateBounds" />
          </mxGeometry>
        </mxCell>
        <mxCell id="eXM2TUHNtdkoOtEyF7D8-74" value="VisibilityID" style="shape=partialRectangle;overflow=hidden;connectable=0;fillColor=#d0cee2;top=0;left=0;bottom=0;right=0;align=left;spacingLeft=6;fontStyle=5;strokeColor=#56517e;" parent="eXM2TUHNtdkoOtEyF7D8-72" vertex="1">
          <mxGeometry x="30" width="220" height="30" as="geometry">
            <mxRectangle width="220" height="30" as="alternateBounds" />
          </mxGeometry>
        </mxCell>
        <mxCell id="eXM2TUHNtdkoOtEyF7D8-93" style="shape=partialRectangle;collapsible=0;dropTarget=0;pointerEvents=0;fillColor=none;points=[[0,0.5],[1,0.5]];portConstraint=eastwest;top=0;left=0;right=0;bottom=0;" parent="eXM2TUHNtdkoOtEyF7D8-71" vertex="1">
          <mxGeometry y="60" width="250" height="30" as="geometry" />
        </mxCell>
        <mxCell id="eXM2TUHNtdkoOtEyF7D8-94" style="shape=partialRectangle;overflow=hidden;connectable=0;fillColor=#d0cee2;top=0;left=0;bottom=0;right=0;strokeColor=#56517e;" parent="eXM2TUHNtdkoOtEyF7D8-93" vertex="1">
          <mxGeometry width="30" height="30" as="geometry">
            <mxRectangle width="30" height="30" as="alternateBounds" />
          </mxGeometry>
        </mxCell>
        <mxCell id="eXM2TUHNtdkoOtEyF7D8-95" value="Name" style="shape=partialRectangle;overflow=hidden;connectable=0;fillColor=#d0cee2;top=0;left=0;bottom=0;right=0;align=left;spacingLeft=6;strokeColor=#56517e;" parent="eXM2TUHNtdkoOtEyF7D8-93" vertex="1">
          <mxGeometry x="30" width="220" height="30" as="geometry">
            <mxRectangle width="220" height="30" as="alternateBounds" />
          </mxGeometry>
        </mxCell>
        <mxCell id="eXM2TUHNtdkoOtEyF7D8-103" value="DimensionType" style="shape=table;startSize=30;container=1;collapsible=1;childLayout=tableLayout;fixedRows=1;rowLines=0;fontStyle=1;align=center;resizeLast=1;fillColor=#0050ef;fontColor=#ffffff;strokeColor=#001DBC;" parent="1" vertex="1">
          <mxGeometry x="-220" y="180" width="250" height="90" as="geometry" />
        </mxCell>
        <mxCell id="eXM2TUHNtdkoOtEyF7D8-104" value="" style="shape=partialRectangle;collapsible=0;dropTarget=0;pointerEvents=0;fillColor=none;points=[[0,0.5],[1,0.5]];portConstraint=eastwest;top=0;left=0;right=0;bottom=1;" parent="eXM2TUHNtdkoOtEyF7D8-103" vertex="1">
          <mxGeometry y="30" width="250" height="30" as="geometry" />
        </mxCell>
        <mxCell id="eXM2TUHNtdkoOtEyF7D8-105" value="PK" style="shape=partialRectangle;overflow=hidden;connectable=0;fillColor=#d0cee2;top=0;left=0;bottom=0;right=0;fontStyle=1;strokeColor=#56517e;" parent="eXM2TUHNtdkoOtEyF7D8-104" vertex="1">
          <mxGeometry width="30" height="30" as="geometry">
            <mxRectangle width="30" height="30" as="alternateBounds" />
          </mxGeometry>
        </mxCell>
        <mxCell id="eXM2TUHNtdkoOtEyF7D8-106" value="TypeID" style="shape=partialRectangle;overflow=hidden;connectable=0;fillColor=#d0cee2;top=0;left=0;bottom=0;right=0;align=left;spacingLeft=6;fontStyle=5;strokeColor=#56517e;" parent="eXM2TUHNtdkoOtEyF7D8-104" vertex="1">
          <mxGeometry x="30" width="220" height="30" as="geometry">
            <mxRectangle width="220" height="30" as="alternateBounds" />
          </mxGeometry>
        </mxCell>
        <mxCell id="eXM2TUHNtdkoOtEyF7D8-107" style="shape=partialRectangle;collapsible=0;dropTarget=0;pointerEvents=0;fillColor=none;points=[[0,0.5],[1,0.5]];portConstraint=eastwest;top=0;left=0;right=0;bottom=0;" parent="eXM2TUHNtdkoOtEyF7D8-103" vertex="1">
          <mxGeometry y="60" width="250" height="30" as="geometry" />
        </mxCell>
        <mxCell id="eXM2TUHNtdkoOtEyF7D8-108" style="shape=partialRectangle;overflow=hidden;connectable=0;fillColor=#d0cee2;top=0;left=0;bottom=0;right=0;strokeColor=#56517e;" parent="eXM2TUHNtdkoOtEyF7D8-107" vertex="1">
          <mxGeometry width="30" height="30" as="geometry">
            <mxRectangle width="30" height="30" as="alternateBounds" />
          </mxGeometry>
        </mxCell>
        <mxCell id="eXM2TUHNtdkoOtEyF7D8-109" value="Name" style="shape=partialRectangle;overflow=hidden;connectable=0;fillColor=#d0cee2;top=0;left=0;bottom=0;right=0;align=left;spacingLeft=6;strokeColor=#56517e;" parent="eXM2TUHNtdkoOtEyF7D8-107" vertex="1">
          <mxGeometry x="30" width="220" height="30" as="geometry">
            <mxRectangle width="220" height="30" as="alternateBounds" />
          </mxGeometry>
        </mxCell>
        <mxCell id="eXM2TUHNtdkoOtEyF7D8-110" style="edgeStyle=orthogonalEdgeStyle;rounded=0;orthogonalLoop=1;jettySize=auto;html=1;exitX=0;exitY=0.5;exitDx=0;exitDy=0;entryX=1;entryY=0.5;entryDx=0;entryDy=0;" parent="1" source="eXM2TUHNtdkoOtEyF7D8-12" target="eXM2TUHNtdkoOtEyF7D8-104" edge="1">
          <mxGeometry relative="1" as="geometry" />
        </mxCell>
        <mxCell id="eXM2TUHNtdkoOtEyF7D8-111" value="DimensionPlaylist" style="shape=table;startSize=30;container=1;collapsible=1;childLayout=tableLayout;fixedRows=1;rowLines=0;fontStyle=1;align=center;resizeLast=1;fillColor=#0050ef;strokeColor=#001DBC;fontColor=#ffffff;" parent="1" vertex="1">
          <mxGeometry x="180" y="-130" width="250" height="150" as="geometry" />
        </mxCell>
        <mxCell id="eXM2TUHNtdkoOtEyF7D8-112" value="" style="shape=partialRectangle;collapsible=0;dropTarget=0;pointerEvents=0;fillColor=none;points=[[0,0.5],[1,0.5]];portConstraint=eastwest;top=0;left=0;right=0;bottom=1;" parent="eXM2TUHNtdkoOtEyF7D8-111" vertex="1">
          <mxGeometry y="30" width="250" height="30" as="geometry" />
        </mxCell>
        <mxCell id="eXM2TUHNtdkoOtEyF7D8-113" value="PK" style="shape=partialRectangle;overflow=hidden;connectable=0;fillColor=#d0cee2;top=0;left=0;bottom=0;right=0;fontStyle=1;strokeColor=#56517e;" parent="eXM2TUHNtdkoOtEyF7D8-112" vertex="1">
          <mxGeometry width="30" height="30" as="geometry">
            <mxRectangle width="30" height="30" as="alternateBounds" />
          </mxGeometry>
        </mxCell>
        <mxCell id="eXM2TUHNtdkoOtEyF7D8-114" value="PlaylistID" style="shape=partialRectangle;overflow=hidden;connectable=0;fillColor=#d0cee2;top=0;left=0;bottom=0;right=0;align=left;spacingLeft=6;fontStyle=5;strokeColor=#56517e;" parent="eXM2TUHNtdkoOtEyF7D8-112" vertex="1">
          <mxGeometry x="30" width="220" height="30" as="geometry">
            <mxRectangle width="220" height="30" as="alternateBounds" />
          </mxGeometry>
        </mxCell>
        <mxCell id="eXM2TUHNtdkoOtEyF7D8-115" style="shape=partialRectangle;collapsible=0;dropTarget=0;pointerEvents=0;fillColor=none;points=[[0,0.5],[1,0.5]];portConstraint=eastwest;top=0;left=0;right=0;bottom=0;" parent="eXM2TUHNtdkoOtEyF7D8-111" vertex="1">
          <mxGeometry y="60" width="250" height="30" as="geometry" />
        </mxCell>
        <mxCell id="eXM2TUHNtdkoOtEyF7D8-116" style="shape=partialRectangle;overflow=hidden;connectable=0;fillColor=#d0cee2;top=0;left=0;bottom=0;right=0;strokeColor=#56517e;" parent="eXM2TUHNtdkoOtEyF7D8-115" vertex="1">
          <mxGeometry width="30" height="30" as="geometry">
            <mxRectangle width="30" height="30" as="alternateBounds" />
          </mxGeometry>
        </mxCell>
        <mxCell id="eXM2TUHNtdkoOtEyF7D8-117" value="Name" style="shape=partialRectangle;overflow=hidden;connectable=0;fillColor=#d0cee2;top=0;left=0;bottom=0;right=0;align=left;spacingLeft=6;strokeColor=#56517e;" parent="eXM2TUHNtdkoOtEyF7D8-115" vertex="1">
          <mxGeometry x="30" width="220" height="30" as="geometry">
            <mxRectangle width="220" height="30" as="alternateBounds" />
          </mxGeometry>
        </mxCell>
        <mxCell id="eXM2TUHNtdkoOtEyF7D8-118" style="shape=partialRectangle;collapsible=0;dropTarget=0;pointerEvents=0;fillColor=none;points=[[0,0.5],[1,0.5]];portConstraint=eastwest;top=0;left=0;right=0;bottom=0;" parent="eXM2TUHNtdkoOtEyF7D8-111" vertex="1">
          <mxGeometry y="90" width="250" height="30" as="geometry" />
        </mxCell>
        <mxCell id="eXM2TUHNtdkoOtEyF7D8-119" style="shape=partialRectangle;overflow=hidden;connectable=0;fillColor=#d0cee2;top=0;left=0;bottom=0;right=0;strokeColor=#56517e;" parent="eXM2TUHNtdkoOtEyF7D8-118" vertex="1">
          <mxGeometry width="30" height="30" as="geometry">
            <mxRectangle width="30" height="30" as="alternateBounds" />
          </mxGeometry>
        </mxCell>
        <mxCell id="eXM2TUHNtdkoOtEyF7D8-120" value="VideoCount" style="shape=partialRectangle;overflow=hidden;connectable=0;fillColor=#d0cee2;top=0;left=0;bottom=0;right=0;align=left;spacingLeft=6;strokeColor=#56517e;" parent="eXM2TUHNtdkoOtEyF7D8-118" vertex="1">
          <mxGeometry x="30" width="220" height="30" as="geometry">
            <mxRectangle width="220" height="30" as="alternateBounds" />
          </mxGeometry>
        </mxCell>
        <mxCell id="eXM2TUHNtdkoOtEyF7D8-121" style="shape=partialRectangle;collapsible=0;dropTarget=0;pointerEvents=0;fillColor=none;points=[[0,0.5],[1,0.5]];portConstraint=eastwest;top=0;left=0;right=0;bottom=0;" parent="eXM2TUHNtdkoOtEyF7D8-111" vertex="1">
          <mxGeometry y="120" width="250" height="30" as="geometry" />
        </mxCell>
        <mxCell id="eXM2TUHNtdkoOtEyF7D8-122" style="shape=partialRectangle;overflow=hidden;connectable=0;fillColor=#d0cee2;top=0;left=0;bottom=0;right=0;strokeColor=#56517e;" parent="eXM2TUHNtdkoOtEyF7D8-121" vertex="1">
          <mxGeometry width="30" height="30" as="geometry">
            <mxRectangle width="30" height="30" as="alternateBounds" />
          </mxGeometry>
        </mxCell>
        <mxCell id="eXM2TUHNtdkoOtEyF7D8-123" value="Visibility" style="shape=partialRectangle;overflow=hidden;connectable=0;fillColor=#d0cee2;top=0;left=0;bottom=0;right=0;align=left;spacingLeft=6;strokeColor=#56517e;" parent="eXM2TUHNtdkoOtEyF7D8-121" vertex="1">
          <mxGeometry x="30" width="220" height="30" as="geometry">
            <mxRectangle width="220" height="30" as="alternateBounds" />
          </mxGeometry>
        </mxCell>
      </root>
    </mxGraphModel>
  </diagram>
</mxfile>
